<?xml version="1.0" encoding="UTF-8"?>
<svg width="50px" height="50px" viewBox="0 0 50 50" version="1.1" xmlns="http://www.w3.org/2000/svg" xmlns:xlink="http://www.w3.org/1999/xlink">
    <!-- Generator: Sketch 49.3 (51167) - http://www.bohemiancoding.com/sketch -->
    <title>Group 341</title>
    <desc>Created with Sketch.</desc>
    <defs>
        <filter x="-7.0%" y="-1.5%" width="110.9%" height="103.0%" filterUnits="objectBoundingBox" id="filter-1">
            <feOffset dx="-5" dy="0" in="SourceAlpha" result="shadowOffsetOuter1"></feOffset>
            <feGaussianBlur stdDeviation="5" in="shadowOffsetOuter1" result="shadowBlurOuter1"></feGaussianBlur>
            <feColorMatrix values="0 0 0 0 0   0 0 0 0 0   0 0 0 0 0  0 0 0 0.407728886 0" type="matrix" in="shadowBlurOuter1" result="shadowMatrixOuter1"></feColorMatrix>
            <feMerge>
                <feMergeNode in="shadowMatrixOuter1"></feMergeNode>
                <feMergeNode in="SourceGraphic"></feMergeNode>
            </feMerge>
        </filter>
    </defs>
    <g id="Page-1" stroke="none" stroke-width="1" fill="none" fill-rule="evenodd">
        <g id="Group-358" transform="translate(-2207.000000, -546.000000)" fill="#FF0000" fill-rule="nonzero">
            <g id="Group-349" filter="url(#filter-1)" transform="translate(2205.000000, 347.000000)">
                <g id="Group-340-Copy" transform="translate(17.000000, 194.000000)">
                    <g id="Group-341" transform="translate(0.000000, 15.000000)">
                        <path color='black' d="M28.2,14.4 L22.692,14.4 C22.7618535,14.2075956 22.7983773,14.0046859 22.8,13.8 L22.8,1.8 C22.8,0.80588745 21.9941125,1.33226763e-16 21,0 L9,0 C8.00588745,-1.33226763e-16 7.2,0.80588745 7.2,1.8 L7.2,13.8 C7.20162274,14.0046859 7.23814647,14.2075956 7.308,14.4 L1.8,14.4 C0.80588745,14.4 1.33226763e-16,15.2058875 0,16.2 L0,28.2 C1.33226763e-16,29.1941125 0.80588745,30 1.8,30 L13.8,30 C14.2440328,29.9973536 14.6714178,29.8306735 15,29.532 C15.3285822,29.8306735 15.7559672,29.9973536 16.2,30 L28.2,30 C29.1941125,30 30,29.1941125 30,28.2 L30,16.2 C30,15.2058875 29.1941125,14.4 28.2,14.4 Z M21,15.6 L23.4,15.6 L23.4,19.278 L22.53,18.678 C22.3297605,18.5461317 22.0702395,18.5461317 21.87,18.678 L21,19.278 L21,15.6 Z M16.2,1.2 L16.2,4.878 L15.33,4.278 C15.1297605,4.14613172 14.8702395,4.14613172 14.67,4.278 L13.8,4.878 L13.8,1.2 L16.2,1.2 Z M8.4,13.8 L8.4,1.8 C8.4,1.46862915 8.66862915,1.2 9,1.2 L12.6,1.2 L12.6,6 C12.6011349,6.22011442 12.7227062,6.42193579 12.9167539,6.52584516 C13.1108015,6.62975454 13.3461677,6.61906746 13.53,6.498 L15,5.52 L16.47,6.498 C16.6538323,6.61906746 16.8891985,6.62975454 17.0832461,6.52584516 C17.2772938,6.42193579 17.3988651,6.22011442 17.4,6 L17.4,1.2 L21,1.2 C21.3313708,1.2 21.6,1.46862915 21.6,1.8 L21.6,13.8 C21.6,14.1313708 21.3313708,14.4 21,14.4 L9,14.4 C8.66862915,14.4 8.4,14.1313708 8.4,13.8 Z M9,15.6 L9,19.278 L8.13,18.678 C7.9297605,18.5461317 7.6702395,18.5461317 7.47,18.678 L6.6,19.278 L6.6,15.6 L9,15.6 Z M13.8,28.8 L1.8,28.8 C1.46862915,28.8 1.2,28.5313708 1.2,28.2 L1.2,16.2 C1.2,15.8686292 1.46862915,15.6 1.8,15.6 L5.4,15.6 L5.4,20.4 C5.4011349,20.6201144 5.52270624,20.8219358 5.71675388,20.9258452 C5.91080152,21.0297545 6.1461677,21.0190675 6.33,20.898 L7.8,19.92 L9.27,20.898 C9.4538323,21.0190675 9.68919848,21.0297545 9.88324612,20.9258452 C10.0772938,20.8219358 10.1988651,20.6201144 10.2,20.4 L10.2,15.6 L13.8,15.6 C14.1313708,15.6 14.4,15.8686292 14.4,16.2 L14.4,28.2 C14.4,28.5313708 14.1313708,28.8 13.8,28.8 Z M28.8,28.2 C28.8,28.5313708 28.5313708,28.8 28.2,28.8 L16.2,28.8 C15.8686292,28.8 15.6,28.5313708 15.6,28.2 L15.6,16.2 C15.6,15.8686292 15.8686292,15.6 16.2,15.6 L19.8,15.6 L19.8,20.4 C19.8011349,20.6201144 19.9227062,20.8219358 20.1167539,20.9258452 C20.3108015,21.0297545 20.5461677,21.0190675 20.73,20.898 L22.2,19.92 L23.67,20.898 C23.8538323,21.0190675 24.0891985,21.0297545 24.2832461,20.9258452 C24.4772938,20.8219358 24.5988651,20.6201144 24.6,20.4 L24.6,15.6 L28.2,15.6 C28.5313708,15.6 28.8,15.8686292 28.8,16.2 L28.8,28.2 Z" id="Shape"></path>
                    </g>
                </g>
            </g>
        </g>
    </g>
</svg>