<?xml version="1.0" encoding="UTF-8"?>
<svg width="50px" height="54px" viewBox="0 0 50 54" version="1.1" xmlns="http://www.w3.org/2000/svg" xmlns:xlink="http://www.w3.org/1999/xlink">
    <!-- Generator: Sketch 49.3 (51167) - http://www.bohemiancoding.com/sketch -->
    <title>Group 350</title>
    <desc>Created with Sketch.</desc>
    <defs>
        <filter x="-7.0%" y="-1.5%" width="110.9%" height="103.0%" filterUnits="objectBoundingBox" id="filter-1">
            <feOffset dx="-5" dy="0" in="SourceAlpha" result="shadowOffsetOuter1"></feOffset>
            <feGaussianBlur stdDeviation="5" in="shadowOffsetOuter1" result="shadowBlurOuter1"></feGaussianBlur>
            <feColorMatrix values="0 0 0 0 0   0 0 0 0 0   0 0 0 0 0  0 0 0 0.407728886 0" type="matrix" in="shadowBlurOuter1" result="shadowMatrixOuter1"></feColorMatrix>
            <feMerge>
                <feMergeNode in="shadowMatrixOuter1"></feMergeNode>
                <feMergeNode in="SourceGraphic"></feMergeNode>
            </feMerge>
        </filter>
    </defs>
    <g id="Page-1" stroke="none" stroke-width="1" fill="none" fill-rule="evenodd">
        <g id="Group-358" transform="translate(-2208.000000, -978.000000)" fill="#FF0000" fill-rule="nonzero">
            <g id="Group-349" filter="url(#filter-1)" transform="translate(2205.000000, 347.000000)">
                <g id="Group-338-Copy" transform="translate(18.000000, 629.000000)">
                    <g id="Group-350" transform="translate(0.000000, 12.000000)">
                        <path d="M10.2272727,4 L12.9545455,4 C13.3311032,4 13.6363636,3.70152317 13.6363636,3.33333333 C13.6363636,2.9651435 13.3311032,2.66666667 12.9545455,2.66666667 L10.2272727,2.66666667 C9.85071494,2.66666667 9.54545455,2.9651435 9.54545455,3.33333333 C9.54545455,3.70152317 9.85071494,4 10.2272727,4 Z" id="Shape"></path>
                        <path d="M15.6818182,4 L17.0454545,4 C17.4220123,4 17.7272727,3.70152317 17.7272727,3.33333333 C17.7272727,2.9651435 17.4220123,2.66666667 17.0454545,2.66666667 L15.6818182,2.66666667 C15.3052604,2.66666667 15,2.9651435 15,3.33333333 C15,3.70152317 15.3052604,4 15.6818182,4 Z" id="Shape"></path>
                        <path d="M14.3181818,29.3333333 L12.9545455,29.3333333 C12.5779877,29.3333333 12.2727273,29.6318102 12.2727273,30 C12.2727273,30.3681898 12.5779877,30.6666667 12.9545455,30.6666667 L14.3181818,30.6666667 C14.6947396,30.6666667 15,30.3681898 15,30 C15,29.6318102 14.6947396,29.3333333 14.3181818,29.3333333 Z" id="Shape"></path>
                        <ellipse id="Oval" cx="4.09090909" cy="12" rx="1.36363636" ry="1.33333333"></ellipse>
                        <path d="M30,18.6666667 C30.000044,15.2428978 27.3476662,12.3757102 23.8636364,12.0333333 L23.8636364,2 C23.8636364,0.8954305 22.9478552,0 21.8181818,0 L5.45454545,0 C4.3248721,0 3.40909091,0.8954305 3.40909091,2 L3.40909091,8.06 C1.44231541,8.38505702 0.00202137091,10.0496529 0,12 C0,15.66 2.57727273,18.2333333 3.40909091,18.9733333 L3.40909091,31.3333333 C3.40909091,32.4379028 4.3248721,33.3333333 5.45454545,33.3333333 L21.8181818,33.3333333 C22.9478552,33.3333333 23.8636364,32.4379028 23.8636364,31.3333333 L23.8636364,25.3333333 C27.3606906,24.9897201 30.0176131,22.1031871 30,18.6666667 Z M16.3636364,18.6666667 C16.3460233,22.1031871 19.0029457,24.9897201 22.5,25.3333333 L22.5,26.6666667 L4.77272727,26.6666667 L4.77272727,18.9733333 C5.60454545,18.2333333 8.18181818,15.64 8.18181818,12 C8.17979681,10.0496529 6.73950277,8.38505702 4.77272727,8.06 L4.77272727,6.66666667 L22.5,6.66666667 L22.5,12.0333333 C19.0159701,12.3757102 16.3635924,15.2428978 16.3636364,18.6666667 Z M5.45454545,1.33333333 L21.8181818,1.33333333 C22.1947396,1.33333333 22.5,1.63181017 22.5,2 L22.5,5.33333333 L4.77272727,5.33333333 L4.77272727,2 C4.77272727,1.63181017 5.07798767,1.33333333 5.45454545,1.33333333 Z M1.36363636,12 C1.36363636,10.5272407 2.58467796,9.33333333 4.09090909,9.33333333 C5.59714023,9.33333333 6.81818182,10.5272407 6.81818182,12 C6.81818182,14.8 4.95,16.9333333 4.09090909,17.7666667 C3.225,16.9333333 1.36363636,14.8133333 1.36363636,12 Z M21.8181818,32 L5.45454545,32 C5.07798767,32 4.77272727,31.7015232 4.77272727,31.3333333 L4.77272727,28 L22.5,28 L22.5,31.3333333 C22.5,31.7015232 22.1947396,32 21.8181818,32 Z M23.1818182,24 C20.1693559,24 17.7272727,21.6121853 17.7272727,18.6666667 C17.7272727,15.721148 20.1693559,13.3333333 23.1818182,13.3333333 C26.1942805,13.3333333 28.6363636,15.721148 28.6363636,18.6666667 C28.6363636,20.0811546 28.06169,21.4377088 27.0387643,22.4379028 C26.0158386,23.4380969 24.6284536,24 23.1818182,24 Z" id="Shape"></path>
                        <path d="M23.8090909,15.74 C23.7019853,15.4941644 23.4551038,15.3346122 23.1818182,15.3346122 C22.9085326,15.3346122 22.6616511,15.4941644 22.5545455,15.74 L20.5090909,20.4066667 C20.4199465,20.6124649 20.4421995,20.8482478 20.5683567,21.0346191 C20.6945138,21.2209903 20.9077885,21.3331512 21.1363636,21.3333333 L25.2272727,21.3333333 C25.4558479,21.3331512 25.6691226,21.2209903 25.7952797,21.0346191 C25.9214368,20.8482478 25.9436899,20.6124649 25.8545455,20.4066667 L23.8090909,15.74 Z M22.1727273,20 L23.1818182,17.6933333 L24.1909091,20 L22.1727273,20 Z" id="Shape"></path>
                    </g>
                </g>
            </g>
        </g>
    </g>
</svg>