<?xml version="1.0" encoding="UTF-8"?>
<svg width="48px" height="42px" viewBox="0 0 48 42" version="1.1" xmlns="http://www.w3.org/2000/svg" xmlns:xlink="http://www.w3.org/1999/xlink">
    <!-- Generator: Sketch 49.3 (51167) - http://www.bohemiancoding.com/sketch -->
    <title>Group 336</title>
    <desc>Created with Sketch.</desc>
    <defs>
        <filter x="-7.0%" y="-1.5%" width="110.9%" height="103.0%" filterUnits="objectBoundingBox" id="filter-1">
            <feOffset dx="-5" dy="0" in="SourceAlpha" result="shadowOffsetOuter1"></feOffset>
            <feGaussianBlur stdDeviation="5" in="shadowOffsetOuter1" result="shadowBlurOuter1"></feGaussianBlur>
            <feColorMatrix values="0 0 0 0 0   0 0 0 0 0   0 0 0 0 0  0 0 0 0.407728886 0" type="matrix" in="shadowBlurOuter1" result="shadowMatrixOuter1"></feColorMatrix>
            <feMerge>
                <feMergeNode in="shadowMatrixOuter1"></feMergeNode>
                <feMergeNode in="SourceGraphic"></feMergeNode>
            </feMerge>
        </filter>
    </defs>
    <g id="Page-1" stroke="none" stroke-width="1" fill="none" fill-rule="evenodd">
        <g id="Group-358" transform="translate(-2208.000000, -669.000000)" fill="#FF0000" fill-rule="nonzero">
            <g id="Group-349" filter="url(#filter-1)" transform="translate(2205.000000, 347.000000)">
                <g id="Group-336" transform="translate(17.000000, 332.000000)">
                    <path d="M24.3857143,18.8091429 L5.61428571,18.8091429 C5.42213491,18.8091697 5.25345214,18.6813001 5.20157143,18.4962857 L2.15014286,7.58571429 C2.10335192,7.43659586 2.14144427,7.2738294 2.24954815,7.16096112 C2.35765203,7.04809284 2.51862537,7.00302031 2.669622,7.04334044 C2.82061864,7.08366058 2.93769498,7.2029798 2.97514286,7.35471429 L5.94,17.952 L24.06,17.952 L27.0248571,7.35385714 C27.0941703,7.13296251 27.3263863,7.00704546 27.5493259,7.06946857 C27.7722656,7.13189169 27.9053301,7.36008725 27.8498571,7.58485714 L24.7975714,18.4962857 C24.7457768,18.6809942 24.577547,18.8087859 24.3857143,18.8091429 Z" id="Shape"></path>
                    <path d="M20.4334286,11.4 C20.2879665,11.4000389 20.1524145,11.3262921 20.0734286,11.2041429 L15.2871429,3.80485714 C15.1586183,3.60603463 15.2156061,3.34066742 15.4144286,3.21214287 C15.6132511,3.08361832 15.8786183,3.14060607 16.0071429,3.33942857 L20.5572857,10.374 L26.3751429,6.49542857 C26.5025177,6.40728257 26.6675443,6.39472915 26.8067867,6.46259382 C26.9460292,6.53045849 27.0378148,6.66817836 27.0468615,6.82281415 C27.0559081,6.97744993 26.9808076,7.12493313 26.8504286,7.20857143 L20.6708571,11.328 C20.6005442,11.3748845 20.5179393,11.3999344 20.4334286,11.4 Z" id="Shape"></path>
                    <path d="M9.56657143,11.4 C9.48206073,11.3999344 9.39945576,11.3748845 9.32914286,11.328 L3.14957143,7.20857143 C3.01919236,7.12493313 2.9440919,6.97744993 2.95313853,6.82281415 C2.96218517,6.66817836 3.05397083,6.53045849 3.19321326,6.46259382 C3.33245569,6.39472915 3.4974823,6.40728257 3.62485714,6.49542857 L9.44271429,10.374 L13.9928571,3.33942857 C14.1213817,3.14060607 14.3867489,3.08361832 14.5855714,3.21214287 C14.7843939,3.34066742 14.8413817,3.60603463 14.7128571,3.80485714 L9.92657143,11.2041429 C9.84758553,11.3262921 9.7120335,11.4000389 9.56657143,11.4 Z" id="Shape"></path>
                    <path d="M14.7857143,21.4028571 L12.1157143,21.4028571 C11.8790208,21.4028571 11.6871429,21.2109792 11.6871429,20.9742857 C11.6871429,20.7375923 11.8790208,20.5457143 12.1157143,20.5457143 L14.7857143,20.5457143 C15.0224077,20.5457143 15.2142857,20.7375923 15.2142857,20.9742857 C15.2142857,21.2109792 15.0224077,21.4028571 14.7857143,21.4028571 Z" id="Shape"></path>
                    <path d="M24.57,21.4028571 L21.7414286,21.4028571 C21.5047351,21.4028571 21.3128571,21.2109792 21.3128571,20.9742857 C21.3128571,20.7375923 21.5047351,20.5457143 21.7414286,20.5457143 L24.57,20.5457143 C25.0493043,20.5457143 25.4378571,20.1571614 25.4378571,19.6778571 C25.4378571,19.1985529 25.0493043,18.81 24.57,18.81 L5.43,18.81 C4.95069573,18.81 4.56214286,19.1985529 4.56214286,19.6778571 C4.56214286,20.1571614 4.95069573,20.5457143 5.43,20.5457143 L9.97285714,20.5457143 C10.2095506,20.5457143 10.4014286,20.7375923 10.4014286,20.9742857 C10.4014286,21.2109792 10.2095506,21.4028571 9.97285714,21.4028571 L5.43,21.4028571 C4.47730881,21.4028571 3.705,20.6305483 3.705,19.6778571 C3.705,18.7251659 4.47730881,17.9528571 5.43,17.9528571 L24.57,17.9528571 C25.5226912,17.9528571 26.295,18.7251659 26.295,19.6778571 C26.295,20.6305483 25.5226912,21.4028571 24.57,21.4028571 Z" id="Shape"></path>
                    <path d="M19.5985714,21.4028571 L16.9285714,21.4028571 C16.691878,21.4028571 16.5,21.2109792 16.5,20.9742857 C16.5,20.7375923 16.691878,20.5457143 16.9285714,20.5457143 L19.5985714,20.5457143 C19.8352649,20.5457143 20.0271429,20.7375923 20.0271429,20.9742857 C20.0271429,21.2109792 19.8352649,21.4028571 19.5985714,21.4028571 Z" id="Shape"></path>
                    <path d="M23.0314286,9.66642857 C22.8419813,9.66638507 22.6750391,9.54196261 22.6208571,9.36042857 L21.7071429,6.303 C21.6610789,6.15565219 21.6978229,5.99491666 21.8033331,5.88221856 C21.9088433,5.76952046 22.0668123,5.72227818 22.2168721,5.75854536 C22.366932,5.79481254 22.4858898,5.90898381 22.5282857,6.05742857 L23.4428571,9.11528571 C23.5104954,9.34203228 23.3815739,9.58069053 23.1548571,9.64842857 C23.1148452,9.66056379 23.0732398,9.66663124 23.0314286,9.66642857 Z" id="Shape"></path>
                    <path d="M19.0152857,9.207 C18.8538765,9.20628048 18.7065612,9.11493373 18.634159,8.9706723 C18.5617568,8.82641087 18.576549,8.65370529 18.6724286,8.52385714 L20.7,5.77714286 C20.843404,5.59536963 21.1052536,5.56035655 21.2913772,5.69806717 C21.4775008,5.83577778 21.5205996,6.09641857 21.3887143,6.28671429 L19.3585714,9.033 C19.2780841,9.14200721 19.1507869,9.20652988 19.0152857,9.207 Z" id="Shape"></path>
                    <path d="M10.9847143,9.207 C10.8493642,9.20639465 10.7222545,9.14188647 10.6418571,9.033 L8.61171429,6.28671429 C8.48290497,6.09653121 8.52693682,5.83861194 8.71154739,5.70193575 C8.89615795,5.56525956 9.15569769,5.59843 9.3,5.77714286 L11.3305714,8.52385714 C11.426451,8.65370529 11.4412432,8.82641087 11.368841,8.9706723 C11.2964388,9.11493373 11.1491235,9.20628048 10.9877143,9.207 L10.9847143,9.207 Z" id="Shape"></path>
                    <path d="M6.96857143,9.66642857 C6.92704732,9.66654582 6.8857372,9.6604793 6.846,9.64842857 C6.61928322,9.58069053 6.49036172,9.34203228 6.558,9.11528571 L7.47171429,6.05271429 C7.54309367,5.83071747 7.77886724,5.70653101 8.00231247,5.77323804 C8.22575771,5.83994508 8.35486247,6.07306181 8.29285714,6.29785714 L7.37914286,9.36042857 C7.32496093,9.54196261 7.15801875,9.66638507 6.96857143,9.66642857 Z" id="Shape"></path>
                    <path d="M21.7765714,6.64585714 C20.9871377,6.64585712 20.2754447,6.17029082 19.9733816,5.44093256 C19.6713184,4.7115743 19.8383774,3.87207357 20.3966526,3.31392092 C20.9549279,2.75576827 21.7944653,2.58889368 22.5237572,2.89111701 C23.2530491,3.19334034 23.7284591,3.90513771 23.7282857,4.69457143 C23.7268686,5.77181653 22.8538168,6.64467663 21.7765714,6.64585714 Z M21.7765714,3.6 C21.1720563,3.6 20.682,4.09005632 20.682,4.69457143 C20.682,5.29908654 21.1720563,5.78914286 21.7765714,5.78914286 C22.3810865,5.78914286 22.8711429,5.29908654 22.8711429,4.69457143 C22.8706702,4.09025222 22.3808906,3.60047268 21.7765714,3.6 Z" id="Shape"></path>
                    <path d="M27.9454286,7.98342857 C27.114393,7.98342855 26.3651946,7.48280191 26.0472111,6.71500857 C25.7292276,5.94721523 25.9050866,5.06347381 26.4927788,4.47590422 C27.080471,3.88833463 27.964249,3.71266003 28.731976,4.03080368 C29.499703,4.34894734 30.0001733,5.09825016 30,5.92928571 C29.9983472,7.06323945 29.0793826,7.98201233 27.9454286,7.98342857 Z M27.9454286,4.73185714 C27.284107,4.73185714 26.748,5.26796418 26.748,5.92928571 C26.748,6.59060725 27.284107,7.12671429 27.9454286,7.12671429 C28.6067501,7.12671429 29.1428571,6.59060725 29.1428571,5.92928571 C29.1414428,5.2685509 28.6061634,4.73327149 27.9454286,4.73185714 Z" id="Shape"></path>
                    <path d="M15,4.13485714 C13.8652915,4.13485714 12.9454286,3.21499418 12.9454286,2.08028571 C12.9454286,0.945577247 13.8652915,0.0257142857 15,0.0257142857 C16.1347085,0.0257142857 17.0545714,0.945577247 17.0545714,2.08028571 C17.0531547,3.21440682 16.1341211,4.13344038 15,4.13485714 Z M15,0.883285714 C14.5156464,0.883285745 14.0789934,1.17507624 13.8936793,1.62257725 C13.7083653,2.07007826 13.8108907,2.58514725 14.1534418,2.92757568 C14.4959928,3.27000412 15.0110985,3.37234522 15.4585331,3.18687098 C15.9059678,3.00139675 16.1976019,2.56463933 16.1974286,2.08028571 C16.1957787,1.41971828 15.660568,0.88469916 15,0.883285714 Z" id="Shape"></path>
                    <path d="M2.05457143,7.98342857 C1.22353586,7.98342855 0.474337463,7.48280191 0.15635397,6.71500857 C-0.161629522,5.94721523 0.0142294528,5.06347381 0.60192163,4.47590422 C1.18961381,3.88833463 2.07339189,3.71266003 2.84111888,4.03080368 C3.60884587,4.34894734 4.10931621,5.09825016 4.10914286,5.92928571 C4.10749006,7.06323945 3.18852548,7.98201233 2.05457143,7.98342857 Z M2.05457143,4.73185714 C1.39324989,4.73185714 0.857142857,5.26796418 0.857142857,5.92928571 C0.857142857,6.59060725 1.39324989,7.12671429 2.05457143,7.12671429 C2.71589297,7.12671429 3.252,6.59060725 3.252,5.92928571 C3.25058565,5.2685509 2.71530624,4.73327149 2.05457143,4.73185714 Z" id="Shape"></path>
                    <path d="M8.22342857,6.64585714 C7.43395586,6.64603048 6.72213138,6.1705741 6.41993317,5.44122957 C6.11773496,4.71188504 6.28468812,3.87231402 6.84292964,3.3140725 C7.40117116,2.75583097 8.24074219,2.58887782 8.97008672,2.89107603 C9.69943125,3.19327423 10.1748876,3.90509871 10.1747143,4.69457143 C10.1732977,5.77164946 9.3005066,6.64444055 8.22342857,6.64585714 Z M8.22342857,3.6 C7.78067679,3.59982664 7.38142482,3.86640047 7.21187092,4.27540003 C7.04231701,4.68439959 7.13585808,5.15526455 7.44886958,5.46839866 C7.76188108,5.78153276 8.23270938,5.87525822 8.6417753,5.70586451 C9.05084123,5.53647079 9.31757139,5.13732324 9.31757143,4.69457143 C9.31709911,4.09041936 8.82758041,3.60070891 8.22342857,3.6 Z" id="Shape"></path>
                </g>
            </g>
        </g>
    </g>
</svg>