<?xml version="1.0" encoding="UTF-8"?>
<svg width="50px" height="50px" viewBox="0 0 50 50" version="1.1" xmlns="http://www.w3.org/2000/svg" xmlns:xlink="http://www.w3.org/1999/xlink">
    <!-- Generator: Sketch 49.3 (51167) - http://www.bohemiancoding.com/sketch -->
    <title>Group 352</title>
    <desc>Created with Sketch.</desc>
    <defs>
        <filter x="-7.0%" y="-1.5%" width="110.9%" height="103.0%" filterUnits="objectBoundingBox" id="filter-1">
            <feOffset dx="-5" dy="0" in="SourceAlpha" result="shadowOffsetOuter1"></feOffset>
            <feGaussianBlur stdDeviation="5" in="shadowOffsetOuter1" result="shadowBlurOuter1"></feGaussianBlur>
            <feColorMatrix values="0 0 0 0 0   0 0 0 0 0   0 0 0 0 0  0 0 0 0.407728886 0" type="matrix" in="shadowBlurOuter1" result="shadowMatrixOuter1"></feColorMatrix>
            <feMerge>
                <feMergeNode in="shadowMatrixOuter1"></feMergeNode>
                <feMergeNode in="SourceGraphic"></feMergeNode>
            </feMerge>
        </filter>
    </defs>
    <g id="Page-1" stroke="none" stroke-width="1" fill="none" fill-rule="evenodd">
        <g id="Group-358" transform="translate(-2207.000000, -729.000000)" fill="#FF0000" fill-rule="nonzero">
            <g id="Group-349" filter="url(#filter-1)" transform="translate(2205.000000, 347.000000)">
                <g id="Group-338-Copy-5" transform="translate(17.000000, 377.000000)">
                    <g id="Group-352" transform="translate(0.000000, 15.000000)">
                        <path d="M30,15 C29.9948861,13.610981 29.3517932,12.3013457 28.2558,11.448 C28.7836628,10.1618862 28.6857023,8.70375327 27.9905517,7.4998041 C27.2954011,6.29585493 26.0815503,5.48202814 24.7038,5.2962 C24.5175185,3.91868647 23.7036131,2.70517237 22.4998146,2.01010875 C21.2960161,1.31504513 19.8381355,1.21684822 18.552,1.7442 C17.7021532,0.644056129 16.3904641,-0.000158057253 15.0003,-0.000158057253 C13.6101359,-0.000158057253 12.2984468,0.644056129 11.4486,1.7442 C10.1623986,1.21661555 8.70433826,1.31469341 7.50038112,2.00978082 C6.29642399,2.70486822 5.4824293,3.9185288 5.2962,5.2962 C3.91844971,5.48202814 2.70459893,6.29585493 2.00944833,7.4998041 C1.31429773,8.70375327 1.21633722,10.1618862 1.7442,11.448 C0.644042706,12.2979691 -0.000164959046,13.6097506 -0.000164959046,15 C-0.000164959046,16.3902494 0.644042706,17.7020309 1.7442,18.552 C1.21633722,19.8381138 1.31429773,21.2962467 2.00944833,22.5001959 C2.70459893,23.7041451 3.91844971,24.5179719 5.2962,24.7038 C5.4824293,26.0814712 6.29642399,27.2951318 7.50038112,27.9902192 C8.70433826,28.6853066 10.1623986,28.7833845 11.4486,28.2558 C12.2984468,29.3559439 13.6101359,30.0001581 15.0003,30.0001581 C16.3904641,30.0001581 17.7021532,29.3559439 18.552,28.2558 C19.8381355,28.7831518 21.2960161,28.6849549 22.4998146,27.9898913 C23.7036131,27.2948276 24.5175185,26.0813135 24.7038,24.7038 C26.0815503,24.5179719 27.2954011,23.7041451 27.9905517,22.5001959 C28.6857023,21.2962467 28.7836628,19.8381138 28.2558,18.552 C29.3517932,17.6986543 29.9948861,16.389019 30,15 Z M27.186,17.8326 C26.9075813,17.9988658 26.8116543,18.356267 26.9694,18.6396 C27.5392401,19.6532351 27.532199,20.8922699 26.9508757,21.8993632 C26.3695524,22.9064566 25.3001513,23.5322666 24.1374,23.5458 C23.8125577,23.5503168 23.5503168,23.8125577 23.5458,24.1374 C23.5325061,25.3001215 22.9068407,26.3695925 21.8998064,26.9509528 C20.8927721,27.5323131 19.6537498,27.5393252 18.6402,26.9694 C18.3567289,26.8112582 17.9988908,26.9072311 17.8326,27.186 C17.2397915,28.1864298 16.1631765,28.7999099 15.0003,28.7999099 C13.8374235,28.7999099 12.7608085,28.1864298 12.168,27.186 C12.0017092,26.9072311 11.6438711,26.8112582 11.3604,26.9694 C10.3467649,27.5392401 9.1077301,27.532199 8.10063677,26.9508757 C7.09354344,26.3695524 6.46773342,25.3001513 6.4542,24.1374 C6.44968317,23.8125577 6.18744233,23.5503168 5.8626,23.5458 C4.6998487,23.5322666 3.6304476,22.9064566 3.04912432,21.8993632 C2.46780103,20.8922699 2.46075994,19.6532351 3.0306,18.6396 C3.18834572,18.356267 3.09241871,17.9988658 2.814,17.8326 C1.81359434,17.2396318 1.20016071,16.1629371 1.20016071,15 C1.20016071,13.8370629 1.81359434,12.7603682 2.814,12.1674 C3.09241871,12.0011342 3.18834572,11.643733 3.0306,11.3604 C2.46075994,10.3467649 2.46780103,9.1077301 3.04912432,8.10063677 C3.6304476,7.09354344 4.6998487,6.46773342 5.8626,6.4542 C6.18744233,6.44968317 6.44968317,6.18744233 6.4542,5.8626 C6.46773342,4.6998487 7.09354344,3.6304476 8.10063677,3.04912432 C9.1077301,2.46780103 10.3467649,2.46075994 11.3604,3.0306 C11.6438711,3.1887418 12.0017092,3.09276888 12.168,2.814 C12.7608085,1.81357019 13.8374235,1.20009007 15.0003,1.20009007 C16.1631765,1.20009007 17.2397915,1.81357019 17.8326,2.814 C17.9988908,3.09276888 18.3567289,3.1887418 18.6402,3.0306 C19.6537498,2.46067483 20.8927721,2.46768687 21.8998064,3.0490472 C22.9068407,3.63040753 23.5325061,4.69987852 23.5458,5.8626 C23.5503168,6.18744233 23.8125577,6.44968317 24.1374,6.4542 C25.3001513,6.46773342 26.3695524,7.09354344 26.9508757,8.10063677 C27.532199,9.1077301 27.5392401,10.3467649 26.9694,11.3604 C26.8116543,11.643733 26.9075813,12.0011342 27.186,12.1674 C28.1864057,12.7603682 28.7998393,13.8370629 28.7998393,15 C28.7998393,16.1629371 28.1864057,17.2396318 27.186,17.8326 Z" id="Shape"></path>
                        <path d="M18.264,7.299 C17.958476,7.17078584 17.6068591,7.3144948 17.4786,7.62 L11.6052,21.615 C11.5191562,21.8132237 11.546351,22.0424034 11.6763951,22.2149859 C11.8064392,22.3875684 12.019241,22.4768897 12.233504,22.4488266 C12.447767,22.4207635 12.6303878,22.2796517 12.7116,22.0794 L18.585,8.0844 C18.7132142,7.77887595 18.5695052,7.42725907 18.264,7.299 Z" id="Shape"></path>
                        <path d="M14.229,10.2156 C14.229,8.22 12.7956,6.6 11.034,6.6 C9.2724,6.6 7.8384,8.22 7.8384,10.2156 C7.8384,12.2112 9.2718,13.8318 11.034,13.8318 C12.7962,13.8318 14.229,12.21 14.229,10.2156 Z M11.034,12.6318 C9.9336,12.6318 9.0384,11.5476 9.0384,10.2156 C9.0384,8.8836 9.9336,7.8 11.034,7.8 C12.1344,7.8 13.029,8.8842 13.029,10.2156 C13.029,11.547 12.1338,12.6318 11.034,12.6318 Z" id="Shape"></path>
                        <path d="M18.966,16.1682 C17.2044,16.1682 15.771,17.7882 15.771,19.7844 C15.771,21.7806 17.2044,23.4 18.966,23.4 C20.7276,23.4 22.1616,21.78 22.1616,19.7844 C22.1616,17.7888 20.7282,16.1682 18.966,16.1682 Z M18.966,22.2 C17.8662,22.2 16.971,21.1158 16.971,19.7844 C16.971,18.453 17.8662,17.3682 18.966,17.3682 C20.0658,17.3682 20.9616,18.4524 20.9616,19.7844 C20.9616,21.1164 20.0664,22.2 18.966,22.2 Z" id="Shape"></path>
                    </g>
                </g>
            </g>
        </g>
    </g>
</svg>