<?xml version="1.0" encoding="UTF-8"?>
<svg width="62px" height="62px" viewBox="0 0 62 62" version="1.1" xmlns="http://www.w3.org/2000/svg" xmlns:xlink="http://www.w3.org/1999/xlink">
    <!-- Generator: Sketch 49.3 (51167) - http://www.bohemiancoding.com/sketch -->
    <title>Group Copy 12</title>
    <desc>Created with Sketch.</desc>
    <defs>
        <filter x="-7.0%" y="-1.5%" width="110.9%" height="103.0%" filterUnits="objectBoundingBox" id="filter-1">
            <feOffset dx="-5" dy="0" in="SourceAlpha" result="shadowOffsetOuter1"></feOffset>
            <feGaussianBlur stdDeviation="5" in="shadowOffsetOuter1" result="shadowBlurOuter1"></feGaussianBlur>
            <feColorMatrix values="0 0 0 0 0   0 0 0 0 0   0 0 0 0 0  0 0 0 0.407728886 0" type="matrix" in="shadowBlurOuter1" result="shadowMatrixOuter1"></feColorMatrix>
            <feMerge>
                <feMergeNode in="shadowMatrixOuter1"></feMergeNode>
                <feMergeNode in="SourceGraphic"></feMergeNode>
            </feMerge>
        </filter>
    </defs>
    <g id="Page-1" stroke="none" stroke-width="1" fill="none" fill-rule="evenodd">
        <g id="Group-358" transform="translate(-2328.000000, -397.000000)" fill="#FFFFFF" fill-rule="nonzero">
            <g id="Group-349" filter="url(#filter-1)" transform="translate(2205.000000, 347.000000)">
                <g id="Group-356" transform="translate(0.000000, 1.000000)">
                    <g id="Group-Copy-12" transform="translate(138.000000, 59.000000)">
                        <path d="M21,0 C9.40202025,4.4408921e-16 -2.10942375e-15,9.40202025 -3.55271368e-15,21 C-4.99600361e-15,32.5979797 9.40202025,42 21,42 C32.5979797,42 42,32.5979797 42,21 C41.987324,9.40727488 32.5927251,0.0126759807 21,0 Z M9,35.715 L9,33 C9.00330612,30.2399468 11.2399468,28.0033061 14,28 L28,28 C30.7600532,28.0033061 32.9966939,30.2399468 33,33 L33,35.715 C26.0201099,41.4284504 15.9798901,41.4284504 9,35.715 Z M35,33.8 L35,33 C34.9955914,29.1358343 31.8641657,26.0044086 28,26 L14,26 C10.1358343,26.0044086 7.00440864,29.1358343 7,33 L7,33.8 C0.0491177317,26.2242437 0.385400637,14.4937194 7.75886446,7.328604 C15.1323283,0.163488562 26.8676717,0.163488562 34.2411355,7.328604 C41.6145994,14.4937194 41.9508823,26.2242437 35,33.8 Z" id="Shape"></path>
                        <path d="M21,5 C16.5837781,5.00495988 13.0049599,8.58377808 13,13 L13,15 C13,19.418278 16.581722,23 21,23 C25.418278,23 29,19.418278 29,15 L29,13 C28.9950401,8.58377808 25.4162219,5.00495988 21,5 Z M27,15 C26.9999999,18.3137084 24.3137084,20.9999999 21,20.9999999 C17.6862916,20.9999999 15.0000001,18.3137084 15,15 L15,13 C15,9.6862915 17.6862915,7 21,7 C24.3137085,7 27,9.6862915 27,13 L27,15 Z" id="Shape"></path>
                        <path d="M24,14 C23.4477153,14 23,14.4477153 23,15 C23,16.1045695 22.1045695,17 21,17 C19.8954305,17 19,16.1045695 19,15 C19,14.4477153 18.5522847,14 18,14 C17.4477153,14 17,14.4477153 17,15 C17,17.209139 18.790861,19 21,19 C23.209139,19 25,17.209139 25,15 C25,14.4477153 24.5522847,14 24,14 Z" id="Shape"></path>
                    </g>
                </g>
            </g>
        </g>
    </g>
</svg>