<?xml version="1.0" encoding="UTF-8"?>
<svg width="50px" height="50px" viewBox="0 0 50 50" version="1.1" xmlns="http://www.w3.org/2000/svg" xmlns:xlink="http://www.w3.org/1999/xlink">
    <!-- Generator: Sketch 49.3 (51167) - http://www.bohemiancoding.com/sketch -->
    <title>Group 337</title>
    <desc>Created with Sketch.</desc>
    <defs>
        <filter x="-7.0%" y="-1.5%" width="110.9%" height="103.0%" filterUnits="objectBoundingBox" id="filter-1">
            <feOffset dx="-5" dy="0" in="SourceAlpha" result="shadowOffsetOuter1"></feOffset>
            <feGaussianBlur stdDeviation="5" in="shadowOffsetOuter1" result="shadowBlurOuter1"></feGaussianBlur>
            <feColorMatrix values="0 0 0 0 0   0 0 0 0 0   0 0 0 0 0  0 0 0 0.407728886 0" type="matrix" in="shadowBlurOuter1" result="shadowMatrixOuter1"></feColorMatrix>
            <feMerge>
                <feMergeNode in="shadowMatrixOuter1"></feMergeNode>
                <feMergeNode in="SourceGraphic"></feMergeNode>
            </feMerge>
        </filter>
    </defs>
    <g id="Page-1" stroke="none" stroke-width="1" fill="none" fill-rule="evenodd">
        <g id="Group-358" transform="translate(-2207.000000, -792.000000)" fill="#FF0000" fill-rule="nonzero">
            <g id="Group-349" filter="url(#filter-1)" transform="translate(2205.000000, 347.000000)">
                <g id="Group-338-Copy-4" transform="translate(17.000000, 440.000000)">
                    <g id="Group-337" transform="translate(0.000000, 15.000000)">
                        <path d="M22.2024766,1.84083655e-06 C19.7216853,-1.40023231e-05 17.3889941,1.1800993 15.9201227,3.17825756 C14.4512513,5.17641582 14.0215882,7.75403208 14.7629631,10.1202381 L7.84276432,12.8862962 C6.97195614,11.374083 5.25626563,10.5576486 3.532825,10.8353536 C1.80938437,11.1130586 0.437328453,12.4270341 0.0861207543,14.1361557 C-0.265086945,15.8452772 0.477739109,17.5933938 1.95215382,18.5275517 C3.42656853,19.4617095 5.3253297,19.3872465 6.72197997,18.3404952 L11.648274,23.2648577 C10.324171,25.0344282 10.5932526,27.5258649 12.2646862,28.972242 C13.9361198,30.4186191 16.4416868,30.3282278 18.00444,28.7651736 C19.5671932,27.2021194 19.6558608,24.6977765 18.2075598,23.0282237 C16.7592588,21.358671 14.266352,21.0914878 12.4968079,22.4161604 L7.57051387,17.4917979 C8.32562357,16.4963854 8.59011237,15.2131723 8.29011859,14.0005111 L15.2187127,11.2296582 C16.9188731,14.6781966 20.8824828,16.3706853 24.5508877,15.2145613 C28.2192925,14.0584373 30.4946854,10.3996824 29.9082175,6.60015585 C29.3217496,2.80062929 26.0489274,-0.00262231346 22.2024766,1.84083655e-06 Z M1.21400549,14.984065 C1.21400549,13.3289711 2.55641386,11.9872524 4.2123585,11.9872524 C5.86830314,11.9872524 7.21071151,13.3289711 7.21071151,14.984065 C7.21071151,16.639159 5.86830314,17.9808777 4.2123585,17.9808777 C2.55723577,17.9788961 1.21598807,16.6383375 1.21400549,14.984065 Z M18.0047823,25.7725905 C18.0047823,27.4276845 16.662374,28.7694032 15.0064293,28.7694032 C13.3504847,28.7694032 12.0080763,27.4276845 12.0080763,25.7725905 C12.0080763,24.1174966 13.3504847,22.7757779 15.0064293,22.7757779 C16.6615521,22.7777595 18.0027998,24.1183181 18.0047823,25.7725905 Z M19.2041235,13.6570764 L19.2041235,13.1859775 C19.2041236,11.5308836 20.5465319,10.1891649 22.2024766,10.1891649 C23.8584212,10.1891649 25.2008295,11.5308836 25.2008296,13.1859775 L25.2008296,13.6570764 C23.3198527,14.6275992 21.0851004,14.6275992 19.2041235,13.6570764 Z M26.385179,12.8862962 C26.231701,10.6905048 24.404751,8.98760905 22.2024766,8.98760905 C20.0002021,8.98760905 18.1732521,10.6905048 18.0197741,12.8862962 C15.8648808,11.1201387 15.0529415,8.19101744 15.9912628,5.56831553 C16.9295842,2.94561363 19.4157069,1.19522447 22.2024766,1.19522447 C24.9892462,1.19522447 27.4753689,2.94561363 28.4136903,5.56831553 C29.3520116,8.19101744 28.5400723,11.1201387 26.385179,12.8862962 Z" id="Shape"></path>
                    </g>
                </g>
            </g>
        </g>
    </g>
</svg>