<?xml version="1.0" encoding="UTF-8"?>
<svg width="50px" height="55px" viewBox="0 0 50 55" version="1.1" xmlns="http://www.w3.org/2000/svg" xmlns:xlink="http://www.w3.org/1999/xlink">
    <!-- Generator: Sketch 49.3 (51167) - http://www.bohemiancoding.com/sketch -->
    <title>Group 351</title>
    <desc>Created with Sketch.</desc>
    <defs>
        <filter x="-7.0%" y="-1.5%" width="110.9%" height="103.0%" filterUnits="objectBoundingBox" id="filter-1">
            <feOffset dx="-5" dy="0" in="SourceAlpha" result="shadowOffsetOuter1"></feOffset>
            <feGaussianBlur stdDeviation="5" in="shadowOffsetOuter1" result="shadowBlurOuter1"></feGaussianBlur>
            <feColorMatrix values="0 0 0 0 0   0 0 0 0 0   0 0 0 0 0  0 0 0 0.407728886 0" type="matrix" in="shadowBlurOuter1" result="shadowMatrixOuter1"></feColorMatrix>
            <feMerge>
                <feMergeNode in="shadowMatrixOuter1"></feMergeNode>
                <feMergeNode in="SourceGraphic"></feMergeNode>
            </feMerge>
        </filter>
    </defs>
    <g id="Page-1" stroke="none" stroke-width="1" fill="none" fill-rule="evenodd">
        <g id="Group-358" transform="translate(-2209.000000, -915.000000)" fill="#FF0000" fill-rule="nonzero">
            <g id="Group-349" filter="url(#filter-1)" transform="translate(2205.000000, 347.000000)">
                <g id="Group-338-Copy-2" transform="translate(19.000000, 566.000000)">
                    <g id="Group-351" transform="translate(0.000000, 12.000000)">
                        <path d="M28.6397368,6.05213904 L16.8402632,0.409893048 C15.6723119,-0.136317604 14.3276881,-0.136317604 13.1597368,0.409893048 L1.36026316,6.05213904 C0.53174276,6.45073794 0.0025112927,7.29773561 -8.51576432e-16,8.22914439 L-8.51576432e-16,14.452139 C-0.00858064946,23.8891576 5.93635877,32.2694288 14.7505263,35.2451872 C14.912469,35.2999902 15.087531,35.2999902 15.2494737,35.2451872 C24.0636412,32.2694288 30.0085806,23.8891576 30,14.452139 L30,8.22914439 C29.9974887,7.29773561 29.4682572,6.45073794 28.6397368,6.05213904 Z M28.4210526,14.452139 C28.4289974,23.0998204 23.0408078,30.8019823 15,33.6368984 C6.95919222,30.8019823 1.57100261,23.0998204 1.57894737,14.452139 L1.57894737,8.22914439 C1.58020841,7.91880941 1.75634473,7.63664801 2.03210526,7.50320856 L13.8323684,1.86176471 C14.5719302,1.50834043 15.4280698,1.50834043 16.1676316,1.86176471 L27.9678947,7.50320856 C28.2436553,7.63664801 28.4197916,7.91880941 28.4210526,8.22914439 L28.4210526,14.452139 Z" id="Shape"></path>
                        <path d="M15,8.01336898 C10.203843,8.01336898 6.31578947,11.9637977 6.31578947,16.8368984 C6.31578947,21.7099991 10.203843,25.6604278 15,25.6604278 C19.796157,25.6604278 23.6842105,21.7099991 23.6842105,16.8368984 C23.6785551,11.9661798 19.7938125,8.01911511 15,8.01336898 Z M15,24.0561497 C11.0758715,24.0561497 7.89473684,20.8239808 7.89473684,16.8368984 C7.89473684,12.849816 11.0758715,9.61764706 15,9.61764706 C18.9241285,9.61764706 22.1052632,12.849816 22.1052632,16.8368984 C22.1009123,20.8221483 18.9223249,24.051729 15,24.0561497 Z" id="Shape"></path>
                        <path d="M17.9944737,13.863369 L13.8157895,18.1090909 L12.0055263,16.2697861 C11.6966102,15.9565786 11.1962884,15.9571174 10.8880263,16.2709893 C10.5797643,16.5848613 10.5802944,17.0932096 10.8892105,17.4064171 L13.2576316,19.8128342 C13.5659209,20.1259748 14.065658,20.1259748 14.3739474,19.8128342 L19.1107895,15 C19.4099781,14.6852576 19.4056992,14.1849587 19.1011726,13.8755466 C18.7966459,13.5661345 18.3042465,13.561787 17.9944737,13.8657754 L17.9944737,13.863369 Z" id="Shape"></path>
                    </g>
                </g>
            </g>
        </g>
    </g>
</svg>