<?xml version="1.0" encoding="UTF-8"?>
<svg width="50px" height="50px" viewBox="0 0 50 50" version="1.1" xmlns="http://www.w3.org/2000/svg" xmlns:xlink="http://www.w3.org/1999/xlink">
    <!-- Generator: Sketch 49.3 (51167) - http://www.bohemiancoding.com/sketch -->
    <title>whatsapp</title>
    <desc>Created with Sketch.</desc>
    <defs>
        <filter x="-7.0%" y="-1.5%" width="110.9%" height="103.0%" filterUnits="objectBoundingBox" id="filter-1">
            <feOffset dx="-5" dy="0" in="SourceAlpha" result="shadowOffsetOuter1"></feOffset>
            <feGaussianBlur stdDeviation="5" in="shadowOffsetOuter1" result="shadowBlurOuter1"></feGaussianBlur>
            <feColorMatrix values="0 0 0 0 0   0 0 0 0 0   0 0 0 0 0  0 0 0 0.407728886 0" type="matrix" in="shadowBlurOuter1" result="shadowMatrixOuter1"></feColorMatrix>
            <feMerge>
                <feMergeNode in="shadowMatrixOuter1"></feMergeNode>
                <feMergeNode in="SourceGraphic"></feMergeNode>
            </feMerge>
        </filter>
    </defs>
    <g id="Page-1" stroke="none" stroke-width="1" fill="none" fill-rule="evenodd">
        <g id="Group-358" transform="translate(-2209.000000, -855.000000)" fill="#FF0000" fill-rule="nonzero">
            <g id="Group-349" filter="url(#filter-1)" transform="translate(2205.000000, 347.000000)">
                <g id="Group-338-Copy-3" transform="translate(19.000000, 503.000000)">
                    <g id="whatsapp" transform="translate(0.000000, 15.000000)">
                        <path d="M15,0 C6.72865385,0 0,6.72865385 0,15 C0,17.8217308 0.784038462,20.5609615 2.27134615,22.9396154 C1.67884615,25.0153846 0.608653846,28.9419231 0.597115385,28.9828846 C0.541730769,29.1859615 0.601153846,29.4028846 0.752884615,29.5488462 C0.904615385,29.6948077 1.12384615,29.7467308 1.32346154,29.6855769 L7.26923077,27.8567308 C9.59826923,29.2598077 12.2653846,30 15,30 C23.2713462,30 30,23.2713462 30,15 C30,6.72865385 23.2713462,0 15,0 Z M15,28.8461538 C12.3928846,28.8461538 9.85326923,28.1175 7.65519231,26.7398077 C7.56230769,26.6815385 7.45557692,26.6521154 7.34884615,26.6521154 C7.29173077,26.6521154 7.23461538,26.6607692 7.17923077,26.6775 L1.9875,28.2755769 C2.36884615,26.8834615 3.05423077,24.3934615 3.45173077,23.0082692 C3.49788462,22.8478846 3.47192308,22.6748077 3.38134615,22.5346154 C1.92403846,20.2921154 1.15384615,17.6867308 1.15384615,15 C1.15384615,7.36557692 7.36557692,1.15384615 15,1.15384615 C22.6344231,1.15384615 28.8461538,7.36557692 28.8461538,15 C28.8461538,22.6344231 22.6344231,28.8461538 15,28.8461538 Z" id="Shape"></path>
                        <path d="M24.9660991,18.2244111 C23.899516,17.6420704 22.9912448,17.0580253 22.3285304,16.6319223 C21.8223945,16.3069478 21.4566594,16.072307 21.1885692,15.9399311 C20.4391877,15.5723462 19.8712293,15.831985 19.6551393,16.0467409 C19.6279836,16.0734433 19.6037168,16.1024183 19.5829167,16.1330977 C18.8046462,17.2813032 17.78833,18.3795126 17.490773,18.4385989 C17.1469935,18.3857621 15.5378744,17.4864008 13.9385776,16.1768443 C12.3057694,14.838881 11.2784755,13.5577314 11.1276747,12.6850725 C12.175191,11.6249283 12.5524818,10.9579351 12.5524818,10.1989037 C12.5524818,9.41657864 10.6966503,6.15035733 10.3609598,5.82026956 C10.0241137,5.48961366 9.26548767,5.43791316 8.1058819,5.66516808 C7.99437024,5.68732544 7.89152528,5.74129848 7.81063599,5.82026956 C7.67023529,5.95832693 4.38497452,9.25181882 5.94613783,13.2435515 C7.65983524,17.6244581 12.0584793,22.7166727 17.6664183,23.5438806 C18.3037104,23.6376233 18.9011356,23.6842105 19.4604272,23.6842105 C22.7595548,23.6842105 24.7066755,22.0519521 25.2549894,18.8141376 C25.2960118,18.5772244 25.1798779,18.3408793 24.9660991,18.2244111 Z M17.8380192,22.420105 C11.9076786,21.5457417 8.17232668,15.7683536 7.02485431,12.8356289 C5.88662643,9.92676593 7.98570353,7.33321918 8.51263948,6.74690149 C8.94135272,6.67531619 9.39259941,6.64520492 9.5809559,6.67417992 C9.97442453,7.21220594 11.3368313,9.74325758 11.3969205,10.1989037 C11.3969205,10.4971758 11.29812,10.9124841 10.1217586,12.0697798 C10.0131358,12.1760215 9.95246886,12.3203284 9.95246886,12.4714529 C9.95246886,15.4462198 16.3334784,19.5731691 17.4636173,19.5731691 C18.4464222,19.5731691 19.7279397,17.9488645 20.4576766,16.8904248 C20.4998546,16.8921292 20.5709217,16.9063326 20.6720333,16.9563287 C20.8800343,17.0591615 21.2405694,17.2903934 21.6964384,17.5835523 C22.2984858,17.9704538 23.0981342,18.4840499 24.0422278,19.0163945 C23.6135146,21.0446447 22.4151975,23.0961884 17.8380192,22.420105 Z" id="Shape"></path>
                    </g>
                </g>
            </g>
        </g>
    </g>
</svg>